<?xml version="1.0" encoding="UTF-8"?>
<svg id="_レイヤー_1" data-name="レイヤー 1" xmlns="http://www.w3.org/2000/svg" viewBox="0 0 233.6 61.76">
  <defs>
    <style>
      .cls-1 {
        fill: #eaa65f;
        stroke-width: 0px;
      }
    </style>
  </defs>
  <path class="cls-1" d="m0,60.64V1.04h14.32v22.72h19.6V1.04h14.24v59.6h-14.24v-24.48H14.32v24.48H0Z"/>
  <path class="cls-1" d="m86.48,61.76c-5.39,0-10.13-1.24-14.24-3.72-4.11-2.48-7.31-6.05-9.6-10.72-2.29-4.67-3.44-10.25-3.44-16.76s1.15-12.04,3.44-16.6c2.29-4.56,5.49-8.03,9.6-10.4,4.11-2.37,8.85-3.56,14.24-3.56s10.2,1.2,14.28,3.6c4.08,2.4,7.27,5.87,9.56,10.4,2.29,4.53,3.44,10.05,3.44,16.56s-1.15,12.09-3.44,16.76c-2.29,4.67-5.48,8.24-9.56,10.72-4.08,2.48-8.84,3.72-14.28,3.72Zm0-12.32c2.61,0,4.87-.77,6.76-2.32,1.89-1.55,3.36-3.73,4.4-6.56,1.04-2.83,1.56-6.16,1.56-10s-.52-7.13-1.56-9.88c-1.04-2.75-2.51-4.84-4.4-6.28-1.89-1.44-4.15-2.16-6.76-2.16s-4.87.72-6.76,2.16c-1.89,1.44-3.35,3.53-4.36,6.28-1.01,2.75-1.52,6.04-1.52,9.88s.51,7.17,1.52,10c1.01,2.83,2.47,5.01,4.36,6.56,1.89,1.55,4.15,2.32,6.76,2.32Z"/>
  <path class="cls-1" d="m124.8,60.64V1.04h15.44l9.44,25.76c.59,1.71,1.15,3.48,1.68,5.32.53,1.84,1.07,3.67,1.6,5.48h.4c.59-1.81,1.15-3.64,1.68-5.48.53-1.84,1.07-3.61,1.6-5.32l9.12-25.76h15.52v59.6h-13.04v-20.4c0-1.97.11-4.19.32-6.64.21-2.45.47-4.92.76-7.4.29-2.48.57-4.68.84-6.6h-.4l-4.96,14.24-8,21.76h-7.84l-8.08-21.76-4.8-14.24h-.32c.27,1.92.53,4.12.8,6.6.27,2.48.51,4.95.72,7.4.21,2.45.32,4.67.32,6.64v20.4h-12.8Z"/>
  <path class="cls-1" d="m194.96,60.64V1.04h37.76v11.92h-23.44v11.04h19.92v12h-19.92v12.64h24.32v12h-38.64Z"/>
</svg>